<svg width="26" height="26" viewBox="0 0 26 26" fill="none" xmlns="http://www.w3.org/2000/svg">
<g clip-path="url(#clip0_5_49)">
<path d="M24.1429 4.11801H1.85715C1.34431 4.11801 0.928574 4.51489 0.928574 5.00445V19.1875C0.928574 19.677 1.34431 20.074 1.85715 20.074H24.1429C24.6556 20.074 25.0714 19.677 25.0714 19.1875V5.00445C25.0714 4.51489 24.6556 4.11801 24.1429 4.11801Z" stroke="#D2D2D2" stroke-width="2" stroke-linecap="round" stroke-linejoin="round"/>
<path d="M11.1429 20.074L9.28572 24.5062" stroke="#D2D2D2" stroke-width="2" stroke-linecap="round" stroke-linejoin="round"/>
<path d="M14.8571 20.074L16.7143 24.5062" stroke="#D2D2D2" stroke-width="2" stroke-linecap="round" stroke-linejoin="round"/>
<path d="M7.42857 24.5062H18.5714" stroke="#D2D2D2" stroke-width="2" stroke-linecap="round" stroke-linejoin="round"/>
<path d="M8.35715 9.87988L5.10715 12.5392L7.89286 14.7553" stroke="#D2D2D2" stroke-width="2" stroke-linecap="round" stroke-linejoin="round"/>
<path d="M18.1071 10.3231L20.8929 12.5392L17.6429 15.1985" stroke="#D2D2D2" stroke-width="2" stroke-linecap="round" stroke-linejoin="round"/>
<path d="M11.6071 16.085L14.3929 8.10699" stroke="#D2D2D2" stroke-width="2" stroke-linecap="round" stroke-linejoin="round"/>
</g>
<defs>
<clipPath id="clip0_5_49">
<rect width="26" height="24.8204" fill="white" transform="translate(0 0.572235)"/>
</clipPath>
</defs>
</svg>
