<svg width="26" height="26" viewBox="0 0 26 26" fill="none" xmlns="http://www.w3.org/2000/svg">
<g clip-path="url(#clip0_5_61)">
<path d="M6.5 10.5101V8.73723C6.5 7.79683 6.89132 6.89495 7.5879 6.23C8.28445 5.56502 9.2292 5.19146 10.2143 5.19146H17.6429C18.6279 5.19146 19.5726 4.81789 20.2692 4.15292C20.9658 3.48797 21.3571 2.58608 21.3571 1.64569" stroke="#D2D2D2" stroke-width="2" stroke-linecap="round" stroke-linejoin="round"/>
<path d="M23.2143 10.5101H2.78572C1.76004 10.5101 0.928574 11.3039 0.928574 12.283V22.9203C0.928574 23.8994 1.76004 24.6932 2.78572 24.6932H23.2143C24.24 24.6932 25.0714 23.8994 25.0714 22.9203V12.283C25.0714 11.3039 24.24 10.5101 23.2143 10.5101Z" stroke="#D2D2D2" stroke-width="2" stroke-linecap="round" stroke-linejoin="round"/>
<path d="M10.2143 19.8177H15.7857" stroke="#D2D2D2" stroke-width="2" stroke-linecap="round" stroke-linejoin="round"/>
<path d="M4.64285 19.8177H6.5M19.5 19.8177H21.3571" stroke="#D2D2D2" stroke-width="2" stroke-linecap="round" stroke-linejoin="round"/>
<path d="M4.64285 15.3855H6.5" stroke="#D2D2D2" stroke-width="2" stroke-linecap="round" stroke-linejoin="round"/>
<path d="M9.59528 15.3855H11.4524" stroke="#D2D2D2" stroke-width="2" stroke-linecap="round" stroke-linejoin="round"/>
<path d="M14.5476 15.3855H16.4047" stroke="#D2D2D2" stroke-width="2" stroke-linecap="round" stroke-linejoin="round"/>
<path d="M19.5 15.3855H21.3571" stroke="#D2D2D2" stroke-width="2" stroke-linecap="round" stroke-linejoin="round"/>
</g>
<defs>
<clipPath id="clip0_5_61">
<rect width="26" height="24.8204" fill="white" transform="translate(0 0.759247)"/>
</clipPath>
</defs>
</svg>
