<svg width="30" height="30" viewBox="0 0 30 30" fill="none" xmlns="http://www.w3.org/2000/svg">
<path d="M14.0176 0.00807311C13.9531 0.0139373 13.7478 0.0344622 13.563 0.0491228C9.30205 0.433231 5.31085 2.73201 2.78299 6.26522C1.37537 8.22974 0.475073 10.4582 0.134897 12.8185C0.0146628 13.6424 0 13.8858 0 15.0029C0 16.1201 0.0146628 16.3634 0.134897 17.1874C0.950147 22.82 4.95894 27.5524 10.3959 29.3058C11.3695 29.6196 12.3959 29.8336 13.563 29.9626C14.0176 30.0125 15.9824 30.0125 16.437 29.9626C18.4516 29.7398 20.1584 29.2413 21.8416 28.3822C22.0997 28.2503 22.1496 28.2151 22.1144 28.1858C22.0909 28.1682 20.9912 26.6933 19.6716 24.9106L17.2727 21.6706L14.2669 17.2226C12.6129 14.7772 11.2522 12.7775 11.2405 12.7775C11.2287 12.7745 11.217 14.7508 11.2111 17.1639C11.2023 21.3891 11.1994 21.5592 11.1466 21.6589C11.0704 21.8025 11.0117 21.8612 10.8886 21.9257C10.7947 21.9726 10.7126 21.9814 10.2698 21.9814H9.76246L9.62757 21.8964C9.53959 21.8406 9.47507 21.7673 9.43108 21.6823L9.3695 21.5504L9.37537 15.6715L9.38416 9.78963L9.47507 9.67527C9.52199 9.6137 9.6217 9.53453 9.69208 9.49641C9.81232 9.43777 9.85924 9.43191 10.3666 9.43191C10.9648 9.43191 11.0645 9.45537 11.2199 9.62543C11.2639 9.67234 12.8915 12.1236 14.8387 15.0762C16.7859 18.0289 19.4487 22.0606 20.7566 24.0397L23.132 27.6374L23.2522 27.5583C24.3167 26.8663 25.4428 25.8811 26.3343 24.8549C28.2317 22.6763 29.4545 20.0198 29.8651 17.1874C29.9853 16.3634 30 16.1201 30 15.0029C30 13.8858 29.9853 13.6424 29.8651 12.8185C29.0499 7.1859 25.0411 2.45346 19.6041 0.700054C18.6452 0.389249 17.6246 0.175204 16.4809 0.0461907C16.1994 0.0168695 14.261 -0.0153839 14.0176 0.00807311ZM20.1584 9.08005C20.2991 9.15042 20.4135 9.2853 20.4545 9.42604C20.478 9.50228 20.4839 11.1325 20.478 14.8065L20.4692 20.0784L19.5396 18.6534L18.607 17.2284V13.3961C18.607 10.9185 18.6188 9.52574 18.6364 9.4583C18.6833 9.2941 18.7859 9.16509 18.9267 9.08885C19.0469 9.02728 19.0909 9.02141 19.5513 9.02141C19.9853 9.02141 20.0616 9.02728 20.1584 9.08005Z" fill="white"/>
</svg>
