<svg width="26" height="26" viewBox="0 0 26 26" fill="none" xmlns="http://www.w3.org/2000/svg">
<path d="M13.0002 17.3333C6.76023 17.3333 5.65482 11.1145 5.459 6.18201C5.40453 4.80998 5.37729 4.12395 5.89265 3.48923C6.40801 2.85452 7.02482 2.75044 8.25845 2.5423C9.47618 2.33684 11.068 2.16666 13.0002 2.16666C14.9323 2.16666 16.5242 2.33684 17.7419 2.5423C18.9756 2.75044 19.5923 2.85452 20.1076 3.48923C20.6231 4.12395 20.5958 4.80998 20.5413 6.18201C20.3455 11.1145 19.2401 17.3333 13.0002 17.3333Z" stroke="white" stroke-width="2"/>
<path d="M13 17.3333V20.5833" stroke="white" stroke-width="2" stroke-linecap="round"/>
<path d="M16.7917 23.8333H9.20833L9.57582 21.9959C9.6771 21.4895 10.1217 21.125 10.6381 21.125H15.3619C15.8783 21.125 16.3229 21.4895 16.4242 21.9959L16.7917 23.8333Z" stroke="white" stroke-width="2" stroke-linecap="round" stroke-linejoin="round"/>
<path d="M20.5833 5.41666L21.611 5.75922C22.6836 6.11675 23.2198 6.29551 23.5265 6.72108C23.8333 7.14666 23.8333 7.71195 23.8332 8.84253V8.92111C23.8332 9.85357 23.8332 10.3198 23.6088 10.7013C23.3843 11.0827 22.9767 11.3091 22.1616 11.762L18.9583 13.5417" stroke="white" stroke-width="2"/>
<path d="M5.41661 5.41666L4.38894 5.75922C3.31637 6.11675 2.78009 6.29551 2.47336 6.72108C2.16663 7.14666 2.16664 7.71195 2.16667 8.84253V8.92111C2.1667 9.85357 2.16672 10.3198 2.39117 10.7013C2.61562 11.0827 3.02319 11.3091 3.83831 11.762L7.04161 13.5417" stroke="white" stroke-width="2"/>
<path d="M12.0747 6.52438C12.4864 5.78591 12.6922 5.41666 13 5.41666C13.3078 5.41666 13.5136 5.78591 13.9253 6.52438L14.0318 6.71544C14.1487 6.92529 14.2072 7.03022 14.2984 7.09945C14.3896 7.16868 14.5031 7.19438 14.7303 7.24577L14.9371 7.29257C15.7365 7.47345 16.1362 7.56388 16.2314 7.86968C16.3265 8.17547 16.0539 8.49411 15.509 9.13139L15.3679 9.29626C15.2131 9.47735 15.1357 9.5679 15.1008 9.67992C15.066 9.79194 15.0777 9.91275 15.1011 10.1544L15.1225 10.3743C15.2048 11.2246 15.2461 11.6497 14.9971 11.8388C14.7481 12.0277 14.3739 11.8555 13.6254 11.5108L13.4318 11.4217C13.219 11.3238 13.1128 11.2748 13 11.2748C12.8872 11.2748 12.7809 11.3238 12.5682 11.4217L12.3746 11.5108C11.6261 11.8555 11.2519 12.0277 11.0029 11.8388C10.754 11.6497 10.7952 11.2246 10.8775 10.3743L10.8989 10.1544C10.9223 9.91275 10.934 9.79194 10.8992 9.67992C10.8643 9.5679 10.7869 9.47735 10.632 9.29626L10.491 9.13139C9.94605 8.49411 9.67357 8.17547 9.76866 7.86968C9.86376 7.56388 10.2635 7.47345 11.0629 7.29257L11.2697 7.24577C11.4969 7.19438 11.6104 7.16868 11.7016 7.09945C11.7928 7.03022 11.8513 6.92529 11.9682 6.71544L12.0747 6.52438Z" stroke="white" stroke-width="2"/>
<path d="M19.5 23.8333H6.5" stroke="white" stroke-width="2" stroke-linecap="round"/>
</svg>
