<svg width="30" height="30" viewBox="0 0 30 30" fill="none" xmlns="http://www.w3.org/2000/svg">
<g clip-path="url(#clip0_125_574)">
<path d="M23.8355 0.41095H6.16431C2.98678 0.41095 0.410889 2.98685 0.410889 6.16437V23.8356C0.410889 27.0131 2.98678 29.589 6.16431 29.589H23.8355C27.0131 29.589 29.589 27.0131 29.589 23.8356V6.16437C29.589 2.98685 27.0131 0.41095 23.8355 0.41095Z" fill="black"/>
<path d="M25.0399 15.1073C25.0399 13.7771 23.3741 12.5165 20.8201 11.7348C21.4095 9.13171 21.1476 7.06071 19.9934 6.39766C19.7273 6.24213 19.4163 6.16846 19.0766 6.16846V7.08117C19.2648 7.08117 19.4163 7.11801 19.5431 7.18759C20.0998 7.50683 20.3413 8.72242 20.153 10.2859C20.108 10.6706 20.0343 11.0758 19.9443 11.4892C19.142 11.2928 18.2662 11.1413 17.3453 11.0431C16.7927 10.2859 16.2197 9.5983 15.6426 8.99664C16.9769 7.7565 18.2293 7.07708 19.0807 7.07708V6.16437C17.9551 6.16437 16.4817 6.96657 14.9919 8.35815C13.5021 6.97476 12.0286 6.18074 10.9031 6.18074V7.09345C11.7503 7.09345 13.0068 7.76878 14.3411 9.00074C13.7681 9.60239 13.1951 10.2859 12.6507 11.0431C11.7257 11.1413 10.8499 11.2928 10.0477 11.4933C9.95352 11.084 9.88394 10.687 9.83483 10.3064C9.64246 8.74288 9.87985 7.5273 10.4324 7.20396C10.5552 7.13029 10.7148 7.09755 10.9031 7.09755V6.18483C10.5593 6.18483 10.2482 6.2585 9.97808 6.41403C8.82798 7.07708 8.57013 9.14399 9.1636 11.7389C6.61782 12.5247 4.96021 13.7812 4.96021 15.1073C4.96021 16.4375 6.62601 17.6981 9.17997 18.4799C8.59059 21.0829 8.85254 23.1539 10.0067 23.817C10.2728 23.9725 10.5838 24.0462 10.9276 24.0462C12.0532 24.0462 13.5266 23.244 15.0164 21.8524C16.5062 23.2358 17.9797 24.0298 19.1052 24.0298C19.449 24.0298 19.7601 23.9561 20.0302 23.8006C21.1803 23.1376 21.4382 21.0706 20.8447 18.4758C23.3823 17.694 25.0399 16.4334 25.0399 15.1073ZM19.711 12.3774C19.5595 12.9053 19.3712 13.4497 19.1584 13.9941C18.9906 13.6666 18.8146 13.3392 18.6223 13.0118C18.434 12.6843 18.2334 12.3651 18.0329 12.054C18.6141 12.14 19.1748 12.2464 19.711 12.3774ZM17.8364 16.7363C17.5172 17.2888 17.1897 17.8127 16.85 18.2998C16.2402 18.353 15.6222 18.3816 15 18.3816C14.382 18.3816 13.764 18.353 13.1583 18.3039C12.8185 17.8168 12.487 17.297 12.1678 16.7486C11.8567 16.2124 11.5743 15.668 11.3165 15.1196C11.5702 14.5712 11.8567 14.0227 12.1637 13.4865C12.4829 12.934 12.8104 12.4101 13.1501 11.9231C13.7599 11.8698 14.3779 11.8412 15 11.8412C15.6181 11.8412 16.2361 11.8698 16.8418 11.919C17.1816 12.406 17.5131 12.9258 17.8323 13.4743C18.1434 14.0104 18.4258 14.5548 18.6836 15.1032C18.4258 15.6517 18.1434 16.2001 17.8364 16.7363ZM19.1584 16.2042C19.3794 16.7527 19.5677 17.3011 19.7232 17.8332C19.1871 17.9642 18.6222 18.0747 18.037 18.1606C18.2375 17.8455 18.4381 17.5221 18.6263 17.1906C18.8146 16.8632 18.9906 16.5316 19.1584 16.2042ZM15.0082 20.5713C14.6276 20.1784 14.247 19.7405 13.8704 19.2616C14.2388 19.278 14.6153 19.2902 14.996 19.2902C15.3807 19.2902 15.7613 19.2821 16.1338 19.2616C15.7654 19.7405 15.3848 20.1784 15.0082 20.5713ZM11.9631 18.1606C11.3819 18.0747 10.8212 17.9682 10.285 17.8373C10.4365 17.3093 10.6248 16.7649 10.8376 16.2206C11.0054 16.548 11.1814 16.8754 11.3738 17.2029C11.5661 17.5303 11.7626 17.8495 11.9631 18.1606ZM14.9878 9.64332C15.3684 10.0362 15.749 10.4742 16.1256 10.953C15.7572 10.9367 15.3807 10.9244 15 10.9244C14.6153 10.9244 14.2347 10.9326 13.8622 10.953C14.2306 10.4742 14.6112 10.0362 14.9878 9.64332ZM11.959 12.054C11.7585 12.3692 11.5579 12.6925 11.3697 13.024C11.1814 13.3515 11.0054 13.6789 10.8376 14.0063C10.6166 13.4579 10.4283 12.9094 10.2728 12.3774C10.8089 12.2505 11.3738 12.14 11.959 12.054ZM8.25498 17.1783C6.8061 16.5603 5.86883 15.7499 5.86883 15.1073C5.86883 14.4647 6.8061 13.6503 8.25498 13.0363C8.60696 12.8849 8.9917 12.7498 9.3887 12.6229C9.622 13.4251 9.92897 14.2601 10.3096 15.1155C9.93306 15.9668 9.63018 16.7977 9.40098 17.5958C8.99579 17.4689 8.61106 17.3298 8.25498 17.1783ZM10.4569 23.027C9.90032 22.7078 9.65883 21.4922 9.84711 19.9287C9.89213 19.544 9.9658 19.1388 10.0558 18.7254C10.858 18.9219 11.7339 19.0733 12.6548 19.1716C13.2074 19.9287 13.7804 20.6163 14.3575 21.218C13.0232 22.4581 11.7708 23.1376 10.9194 23.1376C10.7353 23.1335 10.5797 23.0966 10.4569 23.027ZM20.1653 19.9083C20.3576 21.4718 20.1202 22.6873 19.5677 23.0107C19.4449 23.0843 19.2853 23.1171 19.097 23.1171C18.2498 23.1171 16.9933 22.4418 15.659 21.2098C16.232 20.6082 16.805 19.9246 17.3494 19.1675C18.2744 19.0692 19.1502 18.9178 19.9524 18.7172C20.0466 19.1306 20.1202 19.5276 20.1653 19.9083ZM21.741 17.1783C21.389 17.3298 21.0043 17.4648 20.6073 17.5917C20.374 16.7895 20.067 15.9545 19.6864 15.0991C20.0629 14.2478 20.3658 13.417 20.595 12.6188C21.0002 12.7457 21.3849 12.8849 21.7451 13.0363C23.194 13.6543 24.1313 14.4647 24.1313 15.1073C24.1272 15.7499 23.1899 16.5644 21.741 17.1783Z" fill="#61DAFB"/>
<path d="M14.9959 16.9778C16.029 16.9778 16.8664 16.1403 16.8664 15.1073C16.8664 14.0743 16.029 13.2369 14.9959 13.2369C13.9629 13.2369 13.1255 14.0743 13.1255 15.1073C13.1255 16.1403 13.9629 16.9778 14.9959 16.9778Z" fill="#61DAFB"/>
</g>
<defs>
<clipPath id="clip0_125_574">
<rect width="30" height="30" fill="white"/>
</clipPath>
</defs>
</svg>
