<svg width="143" height="143" viewBox="0 0 143 143" fill="none" xmlns="http://www.w3.org/2000/svg">
<path d="M66.411 41.8425C68.6751 37.7808 69.8072 35.75 71.5 35.75C73.1927 35.75 74.3248 37.7808 76.589 41.8425L77.1747 42.8933C77.8176 44.0475 78.1394 44.6246 78.641 45.0053C79.1427 45.3861 79.7672 45.5274 81.0166 45.8101L82.1541 46.0675C86.5507 47.0623 88.7494 47.5597 89.2725 49.2416C89.7956 50.9234 88.2965 52.676 85.2995 56.181L84.5237 57.0878C83.6723 58.0838 83.2462 58.5818 83.0544 59.1979C82.8631 59.8139 82.9275 60.4783 83.0562 61.8076L83.1735 63.0171C83.6264 67.6938 83.8534 70.0319 82.4842 71.0716C81.1143 72.1107 79.0563 71.1633 74.9397 69.268L73.875 68.7776C72.7048 68.239 72.1202 67.9697 71.5 67.9697C70.8797 67.9697 70.2952 68.239 69.125 68.7776L68.0602 69.268C63.9436 71.1633 61.8856 72.1107 60.5158 71.0716C59.1468 70.0319 59.3733 67.6938 59.8264 63.0171L59.9438 61.8076C60.0725 60.4783 60.1368 59.8139 59.9456 59.1979C59.7537 58.5818 59.3279 58.0838 58.4761 57.0878L57.7007 56.181C54.7033 52.676 53.2046 50.9234 53.7276 49.2416C54.2507 47.5597 56.449 47.0623 60.8459 46.0675L61.9833 45.8101C63.2328 45.5274 63.8572 45.3861 64.3589 45.0053C64.8606 44.6246 65.1824 44.0475 65.8253 42.8933L66.411 41.8425Z" stroke="#FF4C2B" stroke-width="2"/>
<path d="M71.4998 95.7373L49.0283 119.005C45.8101 122.337 44.2009 124.003 42.8383 124.579C39.7331 125.893 36.2886 124.769 34.6552 121.909C33.9383 120.653 33.7149 118.389 33.2682 113.861C33.016 111.304 32.8898 110.025 32.507 108.955C31.65 106.558 29.849 104.693 27.5339 103.805C26.4997 103.409 25.2651 103.279 22.7958 103.017C18.4222 102.555 16.2354 102.324 15.023 101.581C12.2604 99.8903 11.1746 96.3236 12.4434 93.1085C13.0002 91.6976 14.6093 90.0316 17.8275 86.6991L32.507 71.5" stroke="#FF4C2B" stroke-width="2"/>
<path d="M71.5 95.7373L93.9719 119.005C97.1899 122.337 98.7987 124.003 100.161 124.579C103.267 125.893 106.711 124.769 108.345 121.909C109.061 120.653 109.285 118.389 109.732 113.861C109.984 111.304 110.11 110.025 110.493 108.955C111.35 106.558 113.151 104.693 115.466 103.805C116.5 103.409 117.735 103.279 120.204 103.017C124.577 102.555 126.764 102.324 127.977 101.581C130.74 99.8903 131.825 96.3236 130.557 93.1085C130 91.6976 128.391 90.0316 125.172 86.6991L110.493 71.5" stroke="#FF4C2B" stroke-width="2"/>
<path d="M32.7707 38.1149C30.8488 42.9095 29.7915 48.1438 29.7915 53.625C29.7915 76.6599 48.465 95.3333 71.4998 95.3333C94.5348 95.3333 113.208 76.6599 113.208 53.625C113.208 30.5902 94.5348 11.9167 71.4998 11.9167C66.0188 11.9167 60.7844 12.974 55.9898 14.8959" stroke="#FF4C2B" stroke-width="2" stroke-linecap="round"/>
</svg>
