<svg width="27" height="30" viewBox="0 0 27 30" fill="none" xmlns="http://www.w3.org/2000/svg">
<path d="M9.79267 4.76923L10.6933 2.37846C10.8452 1.97368 11.1125 1.6255 11.46 1.37953C11.8076 1.13357 12.2193 1.00128 12.6412 1H14.3587C14.7807 1.00128 15.1924 1.13357 15.5399 1.37953C15.8875 1.6255 16.1547 1.97368 16.3066 2.37846L17.2073 4.76923L20.2652 6.57846L22.7367 6.19077C23.1483 6.13333 23.5672 6.20298 23.9402 6.3909C24.3131 6.57883 24.6233 6.87651 24.8313 7.24615L25.6691 8.75385C25.8838 9.12937 25.9828 9.563 25.9529 9.99752C25.9229 10.432 25.7656 10.847 25.5015 11.1877L23.9725 13.1908V16.8092L25.5434 18.8123C25.8075 19.153 25.9648 19.568 25.9948 20.0025C26.0247 20.437 25.9256 20.8706 25.711 21.2462L24.8731 22.7538C24.6652 23.1234 24.355 23.4211 23.9821 23.6091C23.6091 23.797 23.1902 23.8667 22.7786 23.8092L20.3071 23.4215L17.2492 25.2308L16.3485 27.6215C16.1966 28.0262 15.9294 28.3745 15.5818 28.6205C15.2343 28.8665 14.8225 28.9987 14.4006 29H12.6412C12.2193 28.9987 11.8076 28.8665 11.46 28.6205C11.1125 28.3745 10.8452 28.0262 10.6933 27.6215L9.79267 25.2308L6.73467 23.4215L4.26313 23.8092C3.8516 23.8667 3.43274 23.797 3.05979 23.6091C2.68686 23.4211 2.37666 23.1234 2.16861 22.7538L1.3308 21.2462C1.11611 20.8706 1.01721 20.437 1.04712 20.0025C1.07703 19.568 1.23437 19.153 1.49836 18.8123L3.02736 16.8092V13.1908L1.45647 11.1877C1.19248 10.847 1.03514 10.432 1.00523 9.99752C0.975319 9.563 1.07422 9.12937 1.28891 8.75385L2.12672 7.24615C2.33477 6.87651 2.64497 6.57883 3.0179 6.3909C3.39085 6.20298 3.80971 6.13333 4.22124 6.19077L6.69278 6.57846L9.79267 4.76923ZM9.31093 15C9.31093 15.852 9.55662 16.6848 10.0169 17.3932C10.4772 18.1016 11.1314 18.6537 11.8969 18.9798C12.6624 19.3058 13.5046 19.3911 14.3172 19.2249C15.1298 19.0587 15.8762 18.6484 16.4621 18.046C17.0479 17.4436 17.4469 16.676 17.6085 15.8404C17.7702 15.0048 17.6872 14.1387 17.3702 13.3515C17.0531 12.5644 16.5162 11.8916 15.8273 11.4183C15.1384 10.945 14.3285 10.6923 13.5 10.6923C12.389 10.6923 11.3235 11.1461 10.5379 11.954C9.75229 12.7619 9.31093 13.8575 9.31093 15Z" stroke="#D2D2D2" stroke-width="2" stroke-linecap="round" stroke-linejoin="round"/>
</svg>
