<svg width="26" height="26" viewBox="0 0 26 26" fill="none" xmlns="http://www.w3.org/2000/svg">
<g clip-path="url(#clip0_5_74)">
<path d="M5.57143 13.1787V8.51605C5.58593 7.59952 5.78973 6.69475 6.17117 5.85353C6.55259 5.01233 7.10416 4.25125 7.79424 3.61388C8.48432 2.97653 9.29936 2.47542 10.1927 2.13927C11.086 1.80313 12.04 1.63856 13 1.65499C13.96 1.63856 14.914 1.80313 15.8073 2.13927C16.7006 2.47542 17.5157 2.97653 18.2058 3.61388C18.8959 4.25125 19.4474 5.01233 19.8289 5.85353C20.2102 6.69475 20.4141 7.59952 20.4286 8.51605V13.1787" stroke="#D2D2D2" stroke-width="2" stroke-linecap="round" stroke-linejoin="round"/>
<path d="M2.78572 10.5194H4.64286C4.88913 10.5194 5.12533 10.6128 5.29945 10.779C5.4736 10.9452 5.57143 11.1707 5.57143 11.4058V16.7245C5.57143 16.9596 5.4736 17.185 5.29945 17.3513C5.12533 17.5175 4.88913 17.6109 4.64286 17.6109H2.78572C2.29317 17.6109 1.8208 17.4241 1.47252 17.0917C1.12424 16.7592 0.928574 16.3082 0.928574 15.838V12.2923C0.928574 11.8221 1.12424 11.3711 1.47252 11.0386C1.8208 10.7062 2.29317 10.5194 2.78572 10.5194Z" stroke="#D2D2D2" stroke-width="2" stroke-linecap="round" stroke-linejoin="round"/>
<path d="M23.2143 17.6109H21.3571C21.1109 17.6109 20.8747 17.5175 20.7005 17.3513C20.5264 17.185 20.4286 16.9596 20.4286 16.7245V11.4058C20.4286 11.1707 20.5264 10.9452 20.7005 10.779C20.8747 10.6128 21.1109 10.5194 21.3571 10.5194H23.2143C23.7068 10.5194 24.1793 10.7062 24.5275 11.0386C24.8757 11.3711 25.0714 11.8221 25.0714 12.2923V15.838C25.0714 16.3082 24.8757 16.7592 24.5275 17.0917C24.1793 17.4241 23.7068 17.6109 23.2143 17.6109Z" stroke="#D2D2D2" stroke-width="2" stroke-linecap="round" stroke-linejoin="round"/>
<path d="M16.7143 22.4863C17.6994 22.4863 18.6441 22.1128 19.3407 21.4478C20.0373 20.7828 20.4286 19.8809 20.4286 18.9406V14.9516" stroke="#D2D2D2" stroke-width="2" stroke-linecap="round" stroke-linejoin="round"/>
<path d="M16.7143 22.4863C16.7143 23.074 16.4697 23.6378 16.0344 24.0534C15.599 24.469 15.0085 24.7024 14.3929 24.7024H11.6071C10.9915 24.7024 10.401 24.469 9.96566 24.0534C9.53031 23.6378 9.28572 23.074 9.28572 22.4863C9.28572 21.8986 9.53031 21.3349 9.96566 20.9193C10.401 20.5037 10.9915 20.2702 11.6071 20.2702H14.3929C15.0085 20.2702 15.599 20.5037 16.0344 20.9193C16.4697 21.3349 16.7143 21.8986 16.7143 22.4863Z" stroke="#D2D2D2" stroke-width="2" stroke-linecap="round" stroke-linejoin="round"/>
</g>
<defs>
<clipPath id="clip0_5_74">
<rect width="26" height="24.8204" fill="white" transform="translate(0 0.768524)"/>
</clipPath>
</defs>
</svg>
