<svg width="232" height="232" viewBox="0 0 232 232" fill="none" xmlns="http://www.w3.org/2000/svg">
<path fill-rule="evenodd" clip-rule="evenodd" d="M231.833 116C231.833 179.972 179.972 231.833 116 231.833C52.027 231.833 0.166687 179.972 0.166687 116C0.166687 52.027 52.027 0.166687 116 0.166687C179.972 0.166687 231.833 52.027 231.833 116ZM120.15 85.6799C108.884 90.3661 86.3672 100.065 52.5995 114.777C47.116 116.958 44.2436 119.092 43.9821 121.177C43.5402 124.703 47.9548 126.09 53.9661 127.981C54.7838 128.238 55.631 128.504 56.4996 128.786C62.4138 130.709 70.3696 132.958 74.5054 133.047C78.257 133.128 82.4443 131.582 87.067 128.407C118.618 107.11 134.904 96.3454 135.926 96.1126C136.647 95.9493 137.647 95.7431 138.325 96.3454C139.002 96.9477 138.935 98.0875 138.863 98.3933C138.427 100.258 121.098 116.368 112.13 124.705C109.335 127.304 107.352 129.147 106.946 129.569C106.038 130.512 105.113 131.404 104.223 132.261C98.7293 137.558 94.6079 141.53 104.451 148.016C109.182 151.133 112.966 153.711 116.743 156.282C120.866 159.091 124.979 161.892 130.302 165.381C131.657 166.269 132.952 167.193 134.214 168.091C139.013 171.513 143.324 174.587 148.651 174.096C151.746 173.812 154.943 170.902 156.567 162.221C160.405 141.707 167.948 97.2582 169.691 78.9427C169.844 77.3381 169.652 75.2844 169.498 74.3828C169.342 73.4813 169.02 72.1967 167.848 71.2458C166.461 70.1197 164.319 69.8823 163.36 69.8984C159.003 69.976 152.318 72.3002 120.15 85.6799Z" fill="white"/>
</svg>
