<svg width="242" height="242" viewBox="0 0 242 242" fill="none" xmlns="http://www.w3.org/2000/svg">
<path fill-rule="evenodd" clip-rule="evenodd" d="M17.0833 17.0834C0.166673 34.1611 0.166672 61.4694 0.166672 116.167V125.833C0.166672 180.45 0.166673 207.758 17.0833 224.917C34.1611 241.833 61.4694 241.833 116.167 241.833H125.833C180.45 241.833 207.758 241.833 224.917 224.917C241.833 207.839 241.833 180.531 241.833 125.833V116.167C241.833 61.55 241.833 34.2417 224.917 17.0834C207.839 0.166688 180.531 0.166687 125.833 0.166687H116.167C61.55 0.166687 34.2417 0.166688 17.0833 17.0834ZM40.9277 73.7139C42.2167 136.548 73.6333 174.248 128.733 174.248H131.956V138.319C152.175 140.333 167.481 155.156 173.602 174.248H202.2C199.267 163.399 194.067 153.295 186.944 144.602C179.82 135.911 170.936 128.828 160.875 123.819C169.89 118.33 177.677 111.039 183.748 102.404C189.818 93.769 194.044 83.9749 196.158 73.6334H170.219C164.581 93.6112 147.825 111.736 131.956 113.427V73.7139H105.936V143.314C89.825 139.286 69.525 119.792 68.6388 73.7139H40.9277Z" fill="white"/>
</svg>
